# 3ds Max Wavefront OBJ Exporter v0.97b - (c)2007 guruware
# File Created: 17.11.2013 19:15:47

#
# object Tube002
#

v  0.5000 0.0000 -1.9646
v  0.5000 0.2000 -1.9646
v  1.1379 0.2000 -1.8807
v  1.1379 0.0000 -1.8807
v  0.5000 0.2000 -1.4617
v  1.0077 0.2000 -1.3948
v  0.5000 0.0000 -1.4617
v  1.0077 0.0000 -1.3948
v  1.7323 0.2000 -1.6344
v  1.7323 0.0000 -1.6344
v  1.4808 0.2000 -1.1988
v  1.4808 0.0000 -1.1988
v  2.2428 0.2000 -1.2428
v  2.2428 0.0000 -1.2428
v  1.8871 0.2000 -0.8871
v  1.8871 0.0000 -0.8871
v  2.6344 0.2000 -0.7323
v  2.6344 0.0000 -0.7323
v  2.1988 0.2000 -0.4808
v  2.1988 0.0000 -0.4808
v  2.8807 0.2000 -0.1379
v  2.8807 0.0000 -0.1379
v  2.3948 0.2000 -0.0077
v  2.3948 0.0000 -0.0077
v  2.9646 0.2000 0.5000
v  2.9646 0.0000 0.5000
v  2.4617 0.2000 0.5000
v  2.4617 0.0000 0.5000
v  2.8807 0.2000 1.1379
v  2.8807 0.0000 1.1379
v  2.3948 0.2000 1.0077
v  2.3948 0.0000 1.0077
v  2.6344 0.2000 1.7323
v  2.6344 0.0000 1.7323
v  2.1988 0.2000 1.4808
v  2.1988 0.0000 1.4808
v  2.2428 0.2000 2.2428
v  2.2428 0.0000 2.2428
v  1.8871 0.2000 1.8871
v  1.8871 0.0000 1.8871
v  1.7323 0.2000 2.6344
v  1.7323 0.0000 2.6344
v  1.4808 0.2000 2.1988
v  1.4808 0.0000 2.1988
v  1.1379 0.2000 2.8807
v  1.1379 0.0000 2.8807
v  1.0077 0.2000 2.3948
v  1.0077 0.0000 2.3948
v  0.5000 0.2000 2.9646
v  0.5000 0.0000 2.9646
v  0.5000 0.2000 2.4617
v  0.5000 0.0000 2.4617
v  -0.1379 0.2000 2.8807
v  -0.1379 0.0000 2.8807
v  -0.0077 0.2000 2.3948
v  -0.0077 0.0000 2.3948
v  -0.7323 0.2000 2.6344
v  -0.7323 0.0000 2.6344
v  -0.4808 0.2000 2.1988
v  -0.4808 0.0000 2.1988
v  -1.2428 0.2000 2.2428
v  -1.2428 0.0000 2.2428
v  -0.8871 0.2000 1.8871
v  -0.8871 0.0000 1.8871
v  -1.6344 0.2000 1.7323
v  -1.6344 0.0000 1.7323
v  -1.1988 0.2000 1.4808
v  -1.1988 0.0000 1.4808
v  -1.8807 0.2000 1.1379
v  -1.8807 0.0000 1.1379
v  -1.3948 0.2000 1.0077
v  -1.3948 0.0000 1.0077
v  -1.9646 0.2000 0.5000
v  -1.9646 0.0000 0.5000
v  -1.4617 0.2000 0.5000
v  -1.4617 0.0000 0.5000
v  -1.8807 0.2000 -0.1379
v  -1.8807 0.0000 -0.1379
v  -1.3948 0.2000 -0.0077
v  -1.3948 0.0000 -0.0077
v  -1.6344 0.2000 -0.7323
v  -1.6344 0.0000 -0.7323
v  -1.1988 0.2000 -0.4808
v  -1.1988 0.0000 -0.4808
v  -1.2428 0.2000 -1.2428
v  -1.2428 0.0000 -1.2428
v  -0.8871 0.2000 -0.8871
v  -0.8871 0.0000 -0.8871
v  -0.7323 0.2000 -1.6344
v  -0.7323 0.0000 -1.6344
v  -0.4808 0.2000 -1.1988
v  -0.4808 0.0000 -1.1988
v  -0.1379 0.2000 -1.8807
v  -0.1379 0.0000 -1.8807
v  -0.0077 0.2000 -1.3948
v  -0.0077 0.0000 -1.3948
# 96 vertices

vn -0.0000 0.0000 -1.0000
vn 0.2588 0.0000 -0.9659
vn 0.0000 1.0000 -0.0000
vn 0.0000 0.0000 1.0000
vn -0.2588 0.0000 0.9659
vn 0.0000 -1.0000 -0.0000
vn 0.5000 0.0000 -0.8660
vn -0.5000 0.0000 0.8660
vn 0.7071 0.0000 -0.7071
vn -0.7071 0.0000 0.7071
vn 0.8660 0.0000 -0.5000
vn -0.8660 0.0000 0.5000
vn 0.9659 0.0000 -0.2588
vn -0.9659 0.0000 0.2588
vn 1.0000 0.0000 -0.0000
vn 1.0000 0.0000 0.0000
vn -1.0000 0.0000 0.0000
vn -1.0000 0.0000 -0.0000
vn 0.9659 0.0000 0.2588
vn -0.9659 0.0000 -0.2588
vn 0.8660 0.0000 0.5000
vn -0.8660 0.0000 -0.5000
vn 0.7071 0.0000 0.7071
vn -0.7071 0.0000 -0.7071
vn 0.5000 0.0000 0.8660
vn -0.5000 0.0000 -0.8660
vn 0.2588 0.0000 0.9659
vn -0.2588 0.0000 -0.9659
# 28 vertex normals

vt 1.0000 -0.0000 0.9990
vt 1.0000 0.1250 0.9990
vt 0.0000 0.1250 0.9990
vt 0.0000 0.0000 0.9990
vt 1.0000 0.1250 2.6000
vt 0.9000 1.0000 2.6000
vt 0.1000 1.0000 2.6000
vt 0.0000 0.1250 2.6000
vt 1.0000 0.1250 0.7951
vt 1.0000 -0.0000 0.7951
vt 0.0000 0.0000 0.7951
vt 0.0000 0.1250 0.7951
vt 0.1000 1.0000 2.4000
vt 0.0000 0.1250 2.4000
vt 1.0000 0.1250 2.4000
vt 0.9000 1.0000 2.4000
vt 1.0000 0.0000 0.9990
vt 0.0000 -0.0000 0.9990
vt 0.0000 -0.0000 0.7951
vt 1.0000 0.0000 0.7951
vt -0.0000 0.1250 0.9990
vt -0.0000 0.0000 0.9990
vt -0.0000 0.0000 0.7951
vt -0.0000 0.1250 0.7951
# 24 texture coords

g Tube002
s 2
f 1/1/1 2/2/1 3/3/2 
f 3/3/2 4/4/2 1/1/1 
s 4
f 2/5/3 5/6/3 6/7/3 
f 6/7/3 3/8/3 2/5/3 
s 2
f 5/9/4 7/10/4 8/11/5 
f 8/11/5 6/12/5 5/9/4 
s 4
f 7/13/6 1/14/6 4/15/6 
f 4/15/6 8/16/6 7/13/6 
s 2
f 4/1/2 3/2/2 9/3/7 
f 9/3/7 10/4/7 4/1/2 
s 4
f 3/5/3 6/6/3 11/7/3 
f 11/7/3 9/8/3 3/5/3 
s 2
f 6/9/5 8/10/5 12/11/8 
f 12/11/8 11/12/8 6/9/5 
s 4
f 8/13/6 4/14/6 10/15/6 
f 10/15/6 12/16/6 8/13/6 
s 2
f 10/17/7 9/2/7 13/3/9 
f 13/3/9 14/4/9 10/17/7 
s 4
f 9/5/3 11/6/3 15/7/3 
f 15/7/3 13/8/3 9/5/3 
s 2
f 11/9/8 12/10/8 16/11/10 
f 16/11/10 15/12/10 11/9/8 
s 4
f 12/13/6 10/14/6 14/15/6 
f 14/15/6 16/16/6 12/13/6 
s 2
f 14/1/9 13/2/9 17/3/11 
f 17/3/11 18/4/11 14/1/9 
s 4
f 13/5/3 15/6/3 19/7/3 
f 19/7/3 17/8/3 13/5/3 
s 2
f 15/9/10 16/10/10 20/11/12 
f 20/11/12 19/12/12 15/9/10 
s 4
f 16/13/6 14/14/6 18/15/6 
f 18/15/6 20/16/6 16/13/6 
s 2
f 18/1/11 17/2/11 21/3/13 
f 21/3/13 22/18/13 18/1/11 
s 4
f 17/5/3 19/6/3 23/7/3 
f 23/7/3 21/8/3 17/5/3 
s 2
f 19/9/12 20/10/12 24/11/14 
f 24/11/14 23/12/14 19/9/12 
s 4
f 20/13/6 18/14/6 22/15/6 
f 22/15/6 24/16/6 20/13/6 
s 2
f 22/1/13 21/2/13 25/3/15 
f 25/3/15 26/4/16 22/1/13 
s 4
f 21/5/3 23/6/3 27/7/3 
f 27/7/3 25/8/3 21/5/3 
s 2
f 23/9/14 24/10/14 28/11/17 
f 28/11/17 27/12/18 23/9/14 
s 4
f 24/13/6 22/14/6 26/15/6 
f 26/15/6 28/16/6 24/13/6 
s 2
f 26/17/16 25/2/15 29/3/19 
f 29/3/19 30/4/19 26/17/16 
s 4
f 25/5/3 27/6/3 31/7/3 
f 31/7/3 29/8/3 25/5/3 
s 2
f 27/9/18 28/10/17 32/11/20 
f 32/11/20 31/12/20 27/9/18 
s 4
f 28/13/6 26/14/6 30/15/6 
f 30/15/6 32/16/6 28/13/6 
s 2
f 30/1/19 29/2/19 33/3/21 
f 33/3/21 34/4/21 30/1/19 
s 4
f 29/5/3 31/6/3 35/7/3 
f 35/7/3 33/8/3 29/5/3 
s 2
f 31/9/20 32/10/20 36/11/22 
f 36/11/22 35/12/22 31/9/20 
s 4
f 32/13/6 30/14/6 34/15/6 
f 34/15/6 36/16/6 32/13/6 
s 2
f 34/17/21 33/2/21 37/3/23 
f 37/3/23 38/4/23 34/17/21 
s 4
f 33/5/3 35/6/3 39/7/3 
f 39/7/3 37/8/3 33/5/3 
s 2
f 35/9/22 36/10/22 40/11/24 
f 40/11/24 39/12/24 35/9/22 
s 4
f 36/13/6 34/14/6 38/15/6 
f 38/15/6 40/16/6 36/13/6 
s 2
f 38/1/23 37/2/23 41/3/25 
f 41/3/25 42/4/25 38/1/23 
s 4
f 37/5/3 39/6/3 43/7/3 
f 43/7/3 41/8/3 37/5/3 
s 2
f 39/9/24 40/10/24 44/11/26 
f 44/11/26 43/12/26 39/9/24 
s 4
f 40/13/6 38/14/6 42/15/6 
f 42/15/6 44/16/6 40/13/6 
s 2
f 42/17/25 41/2/25 45/3/27 
f 45/3/27 46/4/27 42/17/25 
s 4
f 41/5/3 43/6/3 47/7/3 
f 47/7/3 45/8/3 41/5/3 
s 2
f 43/9/26 44/10/26 48/19/28 
f 48/19/28 47/12/28 43/9/26 
s 4
f 44/13/6 42/14/6 46/15/6 
f 46/15/6 48/16/6 44/13/6 
s 2
f 46/17/27 45/2/27 49/3/4 
f 49/3/4 50/4/4 46/17/27 
s 4
f 45/5/3 47/6/3 51/7/3 
f 51/7/3 49/8/3 45/5/3 
s 2
f 47/9/28 48/20/28 52/11/1 
f 52/11/1 51/12/1 47/9/28 
s 4
f 48/13/6 46/14/6 50/15/6 
f 50/15/6 52/16/6 48/13/6 
s 2
f 50/17/4 49/2/4 53/3/5 
f 53/3/5 54/4/5 50/17/4 
s 4
f 49/5/3 51/6/3 55/7/3 
f 55/7/3 53/8/3 49/5/3 
s 2
f 51/9/1 52/10/1 56/19/2 
f 56/19/2 55/12/2 51/9/1 
s 4
f 52/13/6 50/14/6 54/15/6 
f 54/15/6 56/16/6 52/13/6 
s 2
f 54/17/5 53/2/5 57/3/8 
f 57/3/8 58/4/8 54/17/5 
s 4
f 53/5/3 55/6/3 59/7/3 
f 59/7/3 57/8/3 53/5/3 
s 2
f 55/9/2 56/10/2 60/19/7 
f 60/19/7 59/12/7 55/9/2 
s 4
f 56/13/6 54/14/6 58/15/6 
f 58/15/6 60/16/6 56/13/6 
s 2
f 58/17/8 57/2/8 61/3/10 
f 61/3/10 62/4/10 58/17/8 
s 4
f 57/5/3 59/6/3 63/7/3 
f 63/7/3 61/8/3 57/5/3 
s 2
f 59/9/7 60/20/7 64/11/9 
f 64/11/9 63/12/9 59/9/7 
s 4
f 60/13/6 58/14/6 62/15/6 
f 62/15/6 64/16/6 60/13/6 
s 2
f 62/1/10 61/2/10 65/21/12 
f 65/21/12 66/22/12 62/1/10 
s 4
f 61/5/3 63/6/3 67/7/3 
f 67/7/3 65/8/3 61/5/3 
s 2
f 63/9/9 64/10/9 68/23/11 
f 68/23/11 67/24/11 63/9/9 
s 4
f 64/13/6 62/14/6 66/15/6 
f 66/15/6 68/16/6 64/13/6 
s 2
f 66/1/12 65/2/12 69/21/14 
f 69/21/14 70/22/14 66/1/12 
s 4
f 65/5/3 67/6/3 71/7/3 
f 71/7/3 69/8/3 65/5/3 
s 2
f 67/9/11 68/10/11 72/23/13 
f 72/23/13 71/24/13 67/9/11 
s 4
f 68/13/6 66/14/6 70/15/6 
f 70/15/6 72/16/6 68/13/6 
s 2
f 70/1/14 69/2/14 73/21/17 
f 73/21/17 74/22/17 70/1/14 
s 4
f 69/5/3 71/6/3 75/7/3 
f 75/7/3 73/8/3 69/5/3 
s 2
f 71/9/13 72/10/13 76/23/15 
f 76/23/15 75/24/15 71/9/13 
s 4
f 72/13/6 70/14/6 74/15/6 
f 74/15/6 76/16/6 72/13/6 
s 2
f 74/1/17 73/2/17 77/21/20 
f 77/21/20 78/22/20 74/1/17 
s 4
f 73/5/3 75/6/3 79/7/3 
f 79/7/3 77/8/3 73/5/3 
s 2
f 75/9/15 76/10/15 80/23/19 
f 80/23/19 79/24/19 75/9/15 
s 4
f 76/13/6 74/14/6 78/15/6 
f 78/15/6 80/16/6 76/13/6 
s 2
f 78/1/20 77/2/20 81/21/22 
f 81/21/22 82/22/22 78/1/20 
s 4
f 77/5/3 79/6/3 83/7/3 
f 83/7/3 81/8/3 77/5/3 
s 2
f 79/9/19 80/10/19 84/23/21 
f 84/23/21 83/24/21 79/9/19 
s 4
f 80/13/6 78/14/6 82/15/6 
f 82/15/6 84/16/6 80/13/6 
s 2
f 82/17/22 81/2/22 85/21/24 
f 85/21/24 86/22/24 82/17/22 
s 4
f 81/5/3 83/6/3 87/7/3 
f 87/7/3 85/8/3 81/5/3 
s 2
f 83/9/21 84/10/21 88/23/23 
f 88/23/23 87/24/23 83/9/21 
s 4
f 84/13/6 82/14/6 86/15/6 
f 86/15/6 88/16/6 84/13/6 
s 2
f 86/1/24 85/2/24 89/21/26 
f 89/21/26 90/22/26 86/1/24 
s 4
f 85/5/3 87/6/3 91/7/3 
f 91/7/3 89/8/3 85/5/3 
s 2
f 87/9/23 88/10/23 92/23/25 
f 92/23/25 91/24/25 87/9/23 
s 4
f 88/13/6 86/14/6 90/15/6 
f 90/15/6 92/16/6 88/13/6 
s 2
f 90/1/26 89/2/26 93/21/28 
f 93/21/28 94/22/28 90/1/26 
s 4
f 89/5/3 91/6/3 95/7/3 
f 95/7/3 93/8/3 89/5/3 
s 2
f 91/9/25 92/10/25 96/23/27 
f 96/23/27 95/24/27 91/9/25 
s 4
f 92/13/6 90/14/6 94/15/6 
f 94/15/6 96/16/6 92/13/6 
s 2
f 94/1/28 93/2/28 2/21/1 
f 2/21/1 1/22/1 94/1/28 
s 4
f 93/5/3 95/6/3 5/7/3 
f 5/7/3 2/8/3 93/5/3 
s 2
f 95/9/27 96/10/27 7/23/4 
f 7/23/4 5/24/4 95/9/27 
s 4
f 96/13/6 94/14/6 1/15/6 
f 1/15/6 7/16/6 96/13/6 
# 192 faces

